<svg width="107" height="107" viewBox="0 0 107 107" fill="none" xmlns="http://www.w3.org/2000/svg">
<path fill-rule="evenodd" clip-rule="evenodd" d="M53.5 91C74.2107 91 91 74.2107 91 53.5C91 32.7893 74.2107 16 53.5 16C32.7893 16 16 32.7893 16 53.5C16 74.2107 32.7893 91 53.5 91ZM53.5 107C83.0472 107 107 83.0472 107 53.5C107 23.9528 83.0472 0 53.5 0C23.9528 0 0 23.9528 0 53.5C0 83.0472 23.9528 107 53.5 107Z" fill="#0000FF"/>
<path d="M85.72 33.8V37.96H70.04V85H65.88V37.96H50.2V33.8H85.72Z" fill="#0000FF"/>
<path fill-rule="evenodd" clip-rule="evenodd" d="M91.72 27.8V43.96H76.04V91H59.88V43.96H44.2V27.8H91.72ZM65.88 85H70.04V37.96H85.72V33.8H50.2V37.96H65.88V85Z" fill="#0000FF"/>
</svg>
